<mxfile host="app.diagrams.net" modified="2024-03-11T20:37:02.946Z" agent="Mozilla/5.0 (Windows NT 10.0; Win64; x64) AppleWebKit/537.36 (KHTML, like Gecko) Chrome/122.0.0.0 Safari/537.36" etag="HxBWceU460AYjV9iZajn" version="24.0.4" type="device">
  <diagram name="Page-1" id="tce-ytD18mQWyFlqNObK">
    <mxGraphModel dx="1050" dy="522" grid="1" gridSize="10" guides="1" tooltips="1" connect="1" arrows="1" fold="1" page="1" pageScale="1" pageWidth="850" pageHeight="1100" math="0" shadow="0">
      <root>
        <mxCell id="0" />
        <mxCell id="1" parent="0" />
        <mxCell id="2eURI8ll9rffLnNwQLxE-1" value="dimAthletes" style="swimlane;fontStyle=0;childLayout=stackLayout;horizontal=1;startSize=26;horizontalStack=0;resizeParent=1;resizeParentMax=0;resizeLast=0;collapsible=1;marginBottom=0;align=center;fontSize=14;" parent="1" vertex="1">
          <mxGeometry x="150" y="90" width="175" height="136" as="geometry" />
        </mxCell>
        <mxCell id="2eURI8ll9rffLnNwQLxE-10" value="&lt;div&gt;`name` varchar(200) ,&amp;nbsp;&lt;/div&gt;&lt;div&gt;`short_name` varchar(200) ,&amp;nbsp;&lt;/div&gt;&lt;div&gt;`gender` varchar(200) ,&amp;nbsp;&lt;/div&gt;&lt;div&gt;`birth_date` varchar(200) ,&amp;nbsp;&lt;/div&gt;&lt;div&gt;`discipline` varchar(200) ,&amp;nbsp;&lt;/div&gt;&lt;div&gt;`discipline_code` varchar(200) ,&lt;/div&gt;&lt;div&gt;`height_m/ft` varchar(200)&amp;nbsp;&lt;/div&gt;" style="text;html=1;align=center;verticalAlign=middle;resizable=0;points=[];autosize=1;strokeColor=none;fillColor=none;" parent="2eURI8ll9rffLnNwQLxE-1" vertex="1">
          <mxGeometry y="26" width="175" height="110" as="geometry" />
        </mxCell>
        <mxCell id="2eURI8ll9rffLnNwQLxE-6" value="dimCoaches" style="swimlane;fontStyle=0;childLayout=stackLayout;horizontal=1;startSize=26;horizontalStack=0;resizeParent=1;resizeParentMax=0;resizeLast=0;collapsible=1;marginBottom=0;align=center;fontSize=14;" parent="1" vertex="1">
          <mxGeometry x="680" y="100" width="170" height="156" as="geometry" />
        </mxCell>
        <mxCell id="2eURI8ll9rffLnNwQLxE-11" value="&lt;div&gt;`name` varchar(200) ,&amp;nbsp;&lt;/div&gt;&lt;div&gt;`short_name` varchar(200) ,&amp;nbsp;&lt;/div&gt;&lt;div&gt;`gender` varchar(200) ,&amp;nbsp;&lt;/div&gt;&lt;div&gt;`birth_date` varchar(200) ,&amp;nbsp;&lt;/div&gt;&lt;div&gt;`country_code` varchar(200) ,&amp;nbsp;&lt;/div&gt;&lt;div&gt;`discipline` varchar(200) ,&amp;nbsp;&lt;/div&gt;&lt;div&gt;`function` varchar(200) ,&amp;nbsp;&lt;/div&gt;&lt;div&gt;`event` varchar(200)&amp;nbsp;&lt;/div&gt;" style="text;html=1;align=center;verticalAlign=middle;resizable=0;points=[];autosize=1;strokeColor=none;fillColor=none;" parent="2eURI8ll9rffLnNwQLxE-6" vertex="1">
          <mxGeometry y="26" width="170" height="130" as="geometry" />
        </mxCell>
        <mxCell id="2eURI8ll9rffLnNwQLxE-12" value="dimMedals" style="swimlane;fontStyle=0;childLayout=stackLayout;horizontal=1;startSize=26;horizontalStack=0;resizeParent=1;resizeParentMax=0;resizeLast=0;collapsible=1;marginBottom=0;align=center;fontSize=14;" parent="1" vertex="1">
          <mxGeometry x="410" y="40" width="208" height="186" as="geometry" />
        </mxCell>
        <mxCell id="2eURI8ll9rffLnNwQLxE-16" value="&lt;div&gt;`medal_type` varchar(200),&amp;nbsp;&lt;/div&gt;&lt;div&gt;`medal_code` integer,&amp;nbsp;&lt;span style=&quot;background-color: initial;&quot;&gt;&amp;nbsp;&lt;/span&gt;&lt;/div&gt;&lt;div&gt;`athlete_short_name` varchar(200),&amp;nbsp;&lt;/div&gt;&lt;div&gt;`athlete_name` varchar(200),&amp;nbsp;&lt;/div&gt;&lt;div&gt;`athlete_sex` varchar(200),&amp;nbsp;&lt;/div&gt;&lt;div&gt;`country_code` varchar(200),&amp;nbsp;&lt;/div&gt;&lt;div&gt;`discipline_code` varchar(200),&amp;nbsp;&lt;/div&gt;&lt;div&gt;`event` varchar(200),&amp;nbsp;&lt;/div&gt;&lt;div&gt;`country` varchar(200),&amp;nbsp;&lt;/div&gt;&lt;div&gt;`discipline` varchar(200)&lt;/div&gt;" style="text;html=1;align=center;verticalAlign=middle;resizable=0;points=[];autosize=1;strokeColor=none;fillColor=none;" parent="2eURI8ll9rffLnNwQLxE-12" vertex="1">
          <mxGeometry y="26" width="208" height="160" as="geometry" />
        </mxCell>
        <mxCell id="2eURI8ll9rffLnNwQLxE-17" value="dimMedals_Totals" style="swimlane;fontStyle=0;childLayout=stackLayout;horizontal=1;startSize=26;horizontalStack=0;resizeParent=1;resizeParentMax=0;resizeLast=0;collapsible=1;marginBottom=0;align=center;fontSize=14;" parent="1" vertex="1">
          <mxGeometry x="130" y="430" width="170" height="136" as="geometry" />
        </mxCell>
        <mxCell id="2eURI8ll9rffLnNwQLxE-21" value="&lt;div&gt;`rank` integer,&amp;nbsp;&lt;/div&gt;&lt;div&gt;`country code` varchar(200),&amp;nbsp;&lt;/div&gt;&lt;div&gt;`gold medal` integer,&amp;nbsp;&lt;/div&gt;&lt;div&gt;`silver medal` integer,&amp;nbsp;&lt;/div&gt;&lt;div&gt;`bronze medal` integer,&amp;nbsp;&lt;/div&gt;&lt;div&gt;`total` integer,&amp;nbsp;&lt;/div&gt;&lt;div&gt;`country` varchar(200)&lt;/div&gt;" style="text;html=1;align=center;verticalAlign=middle;resizable=0;points=[];autosize=1;strokeColor=none;fillColor=none;" parent="2eURI8ll9rffLnNwQLxE-17" vertex="1">
          <mxGeometry y="26" width="170" height="110" as="geometry" />
        </mxCell>
        <mxCell id="2eURI8ll9rffLnNwQLxE-22" value="dimTechnical_Officials" style="swimlane;fontStyle=0;childLayout=stackLayout;horizontal=1;startSize=26;horizontalStack=0;resizeParent=1;resizeParentMax=0;resizeLast=0;collapsible=1;marginBottom=0;align=center;fontSize=14;" parent="1" vertex="1">
          <mxGeometry x="680" y="380" width="170" height="136" as="geometry" />
        </mxCell>
        <mxCell id="2eURI8ll9rffLnNwQLxE-26" value="&lt;div&gt;`name` varchar(200) ,&amp;nbsp;&lt;/div&gt;&lt;div&gt;`short_name` varchar(200) ,&amp;nbsp;&lt;/div&gt;&lt;div&gt;`gender` varchar(200) ,&amp;nbsp;&lt;/div&gt;&lt;div&gt;`birth_date` varchar(200) ,&amp;nbsp;&lt;/div&gt;&lt;div&gt;`country` varchar(200) ,&amp;nbsp;&lt;/div&gt;&lt;div&gt;`discipline` varchar(200) ,&amp;nbsp;&lt;/div&gt;&lt;div&gt;`function` varchar(200)&amp;nbsp;&lt;/div&gt;" style="text;html=1;align=center;verticalAlign=middle;resizable=0;points=[];autosize=1;strokeColor=none;fillColor=none;" parent="2eURI8ll9rffLnNwQLxE-22" vertex="1">
          <mxGeometry y="26" width="170" height="110" as="geometry" />
        </mxCell>
        <mxCell id="2eURI8ll9rffLnNwQLxE-27" value="factOlympics" style="swimlane;fontStyle=0;childLayout=stackLayout;horizontal=1;startSize=26;horizontalStack=0;resizeParent=1;resizeParentMax=0;resizeLast=0;collapsible=1;marginBottom=0;align=center;fontSize=14;" parent="1" vertex="1">
          <mxGeometry x="380" y="280" width="255" height="186" as="geometry" />
        </mxCell>
        <mxCell id="2eURI8ll9rffLnNwQLxE-31" value="&lt;div&gt;`height_m/ft` varchar(200),&lt;/div&gt;&lt;div&gt;`birth_date_athlete` varchar(200) ,&amp;nbsp;&lt;/div&gt;&lt;div&gt;`birth_date_coach` varchar(200) ,&lt;/div&gt;&lt;div&gt;`birth_date_technical_official` varchar(200) ,&amp;nbsp;&lt;/div&gt;&lt;div&gt;`rnk` integer,&lt;/div&gt;&lt;div&gt;`gold medal` integer,&amp;nbsp;&lt;/div&gt;&lt;div&gt;`silver medal` integer,&amp;nbsp;&lt;/div&gt;&lt;div&gt;`bronze medal` integer,&amp;nbsp;&lt;/div&gt;&lt;div&gt;`medal_total` integer,&amp;nbsp;&lt;/div&gt;&lt;div&gt;`medal_code` integer&lt;/div&gt;" style="text;html=1;align=center;verticalAlign=middle;resizable=0;points=[];autosize=1;strokeColor=none;fillColor=none;" parent="2eURI8ll9rffLnNwQLxE-27" vertex="1">
          <mxGeometry y="26" width="255" height="160" as="geometry" />
        </mxCell>
        <mxCell id="2eURI8ll9rffLnNwQLxE-32" value="" style="endArrow=classic;html=1;rounded=0;entryX=1.001;entryY=0.753;entryDx=0;entryDy=0;entryPerimeter=0;" parent="1" target="2eURI8ll9rffLnNwQLxE-10" edge="1">
          <mxGeometry width="50" height="50" relative="1" as="geometry">
            <mxPoint x="380" y="340" as="sourcePoint" />
            <mxPoint x="330" y="200" as="targetPoint" />
          </mxGeometry>
        </mxCell>
        <mxCell id="2eURI8ll9rffLnNwQLxE-33" value="" style="endArrow=classic;html=1;rounded=0;exitX=0.5;exitY=0;exitDx=0;exitDy=0;entryX=0.525;entryY=0.988;entryDx=0;entryDy=0;entryPerimeter=0;" parent="1" source="2eURI8ll9rffLnNwQLxE-27" target="2eURI8ll9rffLnNwQLxE-16" edge="1">
          <mxGeometry width="50" height="50" relative="1" as="geometry">
            <mxPoint x="520" y="280" as="sourcePoint" />
            <mxPoint x="570" y="230" as="targetPoint" />
          </mxGeometry>
        </mxCell>
        <mxCell id="2eURI8ll9rffLnNwQLxE-34" value="" style="endArrow=classic;html=1;rounded=0;exitX=1.01;exitY=0.22;exitDx=0;exitDy=0;exitPerimeter=0;entryX=-0.012;entryY=0.375;entryDx=0;entryDy=0;entryPerimeter=0;" parent="1" source="2eURI8ll9rffLnNwQLxE-31" target="2eURI8ll9rffLnNwQLxE-11" edge="1">
          <mxGeometry width="50" height="50" relative="1" as="geometry">
            <mxPoint x="520" y="290" as="sourcePoint" />
            <mxPoint x="570" y="240" as="targetPoint" />
          </mxGeometry>
        </mxCell>
        <mxCell id="2eURI8ll9rffLnNwQLxE-35" value="" style="endArrow=classic;html=1;rounded=0;entryX=0;entryY=0.305;entryDx=0;entryDy=0;entryPerimeter=0;exitX=1.005;exitY=0.71;exitDx=0;exitDy=0;exitPerimeter=0;" parent="1" target="2eURI8ll9rffLnNwQLxE-26" edge="1" source="2eURI8ll9rffLnNwQLxE-31">
          <mxGeometry width="50" height="50" relative="1" as="geometry">
            <mxPoint x="600" y="420" as="sourcePoint" />
            <mxPoint x="590" y="390" as="targetPoint" />
          </mxGeometry>
        </mxCell>
        <mxCell id="2eURI8ll9rffLnNwQLxE-36" value="" style="endArrow=classic;html=1;rounded=0;exitX=0;exitY=0.783;exitDx=0;exitDy=0;exitPerimeter=0;entryX=0.995;entryY=0.269;entryDx=0;entryDy=0;entryPerimeter=0;" parent="1" source="2eURI8ll9rffLnNwQLxE-31" target="2eURI8ll9rffLnNwQLxE-21" edge="1">
          <mxGeometry width="50" height="50" relative="1" as="geometry">
            <mxPoint x="260" y="490" as="sourcePoint" />
            <mxPoint x="310" y="440" as="targetPoint" />
          </mxGeometry>
        </mxCell>
        <mxCell id="2eURI8ll9rffLnNwQLxE-37" value="" style="edgeStyle=entityRelationEdgeStyle;fontSize=12;html=1;endArrow=ERoneToMany;rounded=0;entryX=-0.015;entryY=0.125;entryDx=0;entryDy=0;entryPerimeter=0;" parent="1" source="2eURI8ll9rffLnNwQLxE-10" target="2eURI8ll9rffLnNwQLxE-16" edge="1">
          <mxGeometry width="100" height="100" relative="1" as="geometry">
            <mxPoint x="240" y="160" as="sourcePoint" />
            <mxPoint x="330" y="60" as="targetPoint" />
          </mxGeometry>
        </mxCell>
        <mxCell id="2eURI8ll9rffLnNwQLxE-38" value="dimCountry" style="swimlane;fontStyle=0;childLayout=stackLayout;horizontal=1;startSize=26;horizontalStack=0;resizeParent=1;resizeParentMax=0;resizeLast=0;collapsible=1;marginBottom=0;align=center;fontSize=14;" parent="1" vertex="1">
          <mxGeometry x="10" y="280" width="180" height="126" as="geometry" />
        </mxCell>
        <mxCell id="2eURI8ll9rffLnNwQLxE-42" value="&lt;div&gt;`birth_place` varchar(200) ,&amp;nbsp;&lt;/div&gt;&lt;div&gt;`birth_country` varchar(200) ,&amp;nbsp;&lt;/div&gt;&lt;div&gt;`country` varchar(200) ,&amp;nbsp;&lt;/div&gt;&lt;div&gt;`country_code` varchar(200) ,&amp;nbsp;&lt;/div&gt;&lt;div&gt;`residence_place` varchar(200) ,&amp;nbsp;&lt;/div&gt;&lt;div&gt;`residence_country` varchar(200)&lt;/div&gt;" style="text;html=1;align=center;verticalAlign=middle;resizable=0;points=[];autosize=1;strokeColor=none;fillColor=none;" parent="2eURI8ll9rffLnNwQLxE-38" vertex="1">
          <mxGeometry y="26" width="180" height="100" as="geometry" />
        </mxCell>
        <mxCell id="2eURI8ll9rffLnNwQLxE-43" value="" style="edgeStyle=entityRelationEdgeStyle;fontSize=12;html=1;endArrow=ERmandOne;startArrow=ERmandOne;rounded=0;exitX=0.415;exitY=-0.035;exitDx=0;exitDy=0;exitPerimeter=0;entryX=-0.005;entryY=0.251;entryDx=0;entryDy=0;entryPerimeter=0;" parent="1" source="2eURI8ll9rffLnNwQLxE-38" target="2eURI8ll9rffLnNwQLxE-10" edge="1">
          <mxGeometry width="100" height="100" relative="1" as="geometry">
            <mxPoint x="30" y="240" as="sourcePoint" />
            <mxPoint x="130" y="140" as="targetPoint" />
          </mxGeometry>
        </mxCell>
      </root>
    </mxGraphModel>
  </diagram>
</mxfile>
